<?xml version="1.0" encoding="UTF-8" standalone="no"?>
<!-- Created with Inkscape (http://www.inkscape.org/) -->

<svg
   xmlns:dc="http://purl.org/dc/elements/1.1/"
   xmlns:cc="http://creativecommons.org/ns#"
   xmlns:rdf="http://www.w3.org/1999/02/22-rdf-syntax-ns#"
   xmlns:svg="http://www.w3.org/2000/svg"
   xmlns="http://www.w3.org/2000/svg"
   xmlns:sodipodi="http://sodipodi.sourceforge.net/DTD/sodipodi-0.dtd"
   xmlns:inkscape="http://www.inkscape.org/namespaces/inkscape"
   width="210mm"
   height="297mm"
   viewBox="0 0 210 297"
   version="1.1"
   id="svg8"
   inkscape:version="0.92.3 (2405546, 2018-03-11)"
   sodipodi:docname="Piteca.svg">
  <defs
     id="defs2" />
  <sodipodi:namedview
     id="base"
     pagecolor="#ffffff"
     bordercolor="#666666"
     borderopacity="1.0"
     inkscape:pageopacity="0.0"
     inkscape:pageshadow="2"
     inkscape:zoom="0.35"
     inkscape:cx="-448.16659"
     inkscape:cy="1056.3492"
     inkscape:document-units="mm"
     inkscape:current-layer="layer1"
     showgrid="false"
     inkscape:window-width="1920"
     inkscape:window-height="1001"
     inkscape:window-x="-9"
     inkscape:window-y="-9"
     inkscape:window-maximized="1" />
  <metadata
     id="metadata5">
    <rdf:RDF>
      <cc:Work
         rdf:about="">
        <dc:format>image/svg+xml</dc:format>
        <dc:type
           rdf:resource="http://purl.org/dc/dcmitype/StillImage" />
        <dc:title></dc:title>
      </cc:Work>
    </rdf:RDF>
  </metadata>
  <g
     inkscape:label="Layer 1"
     inkscape:groupmode="layer"
     id="layer1">
    <path
       inkscape:connector-curvature="0"
       id="path3738"
       d="m 151.01068,164.12203 c 5.77752,-1.93215 8.72492,-3.33652 13.59257,-7.271 1.62887,-1.48074 3.25816,-4.41438 3.87034,-5.59106 4.15138,-7.97948 4.24745,-17.32583 0.24634,-23.96407 -1.16363,-1.93057 -4.21278,-4.80728 -6.0921,-5.74756 -1.76628,-0.88372 -3.94406,-1.49824 -5.32518,-1.50254 -1.19914,-0.004 -1.35902,-0.31335 -1.61139,-3.1201 -0.4673,-5.19723 -2.52849,-12.21466 -5.19646,-17.691691 -19.54592,-28.393407 -33.68296,-26.37889 -46.641,-26.774666 -15.369498,-0.469428 -24.417019,1.951305 -42.653982,26.813525 -2.78469,5.703712 -4.2884,10.730892 -5.11627,17.104632 l -0.45888,3.53287 -1.710591,0.17357 c -10.27071,1.04213 -16.37587,13.17185 -12.92455,25.67845 0.61404,2.22511 2.43673,6.20704 3.6902,8.0618 3.9236,5.80575 9.53862,9.42855 15.528151,10.01874 l 1.85718,0.183 c 2.083066,6.95664 12.959618,15.62091 20.480232,18.77093 14.255993,5.97114 25.5741,9.36368 47.17061,0.79053 15.34353,-6.09091 17.28354,-12.76921 21.29478,-19.46536 z"
       style="fill:#f9e4b6;stroke-width:0.26458332"
       sodipodi:nodetypes="ccccscccscsccssscssc" />
    <path
       inkscape:connector-curvature="0"
       id="path3734"
       d="m 100.53398,175.61455 c -6.156738,-1.49917 -10.945226,-6.08999 -11.246666,-10.78242 -0.09169,-1.42761 -0.03599,-1.68212 0.421849,-1.92496 0.834893,-0.44289 1.436066,0.19608 1.691521,1.79782 0.656914,4.11902 4.26203,7.44993 9.500566,8.77792 1.13625,0.28804 2.40773,0.52371 2.82551,0.52371 h 0.75963 V 161.97706 149.9475 l -1.53794,-0.76213 c -1.86851,-0.92595 -2.74154,-2.09732 -2.74154,-3.67838 0,-2.33255 2.31581,-4.16316 5.26425,-4.16128 5.95792,0.004 7.75975,5.99374 2.41877,8.0409 l -1.13007,0.43314 v 12.02716 12.02716 l 1.47108,-0.0472 c 1.7587,-0.0564 4.96827,-1.15409 6.82042,-2.33259 2.56198,-1.63018 4.36146,-4.08262 4.82441,-6.57498 0.19531,-1.0515 0.8643,-1.62582 1.57775,-1.35446 1.78158,0.67764 -0.57432,6.19528 -3.68629,8.63349 -1.85244,1.45139 -4.65199,2.80489 -7.06872,3.41756 -2.64575,0.6707 -7.40711,0.67007 -10.16453,-0.001 z M 57.904894,155.35459 c -4.847282,-1.99272 -8.407282,-5.63743 -10.033388,-10.27214 -2.412364,-6.87568 0.412771,-15.25111 5.887267,-17.45348 l 1.513572,-0.6089 v -3.27298 c 0,-6.88544 1.532921,-14.85264 4.068595,-21.14604 6.324582,-15.697277 19.659311,-27.287178 35.583483,-30.927433 1.434297,-0.327879 2.607812,-0.712689 2.607812,-0.855132 0,-0.142444 -0.872934,-1.111969 -1.939839,-2.1545 -2.561108,-2.502595 -3.459971,-4.295179 -3.621342,-7.22199 -0.134541,-2.440229 0.290554,-4.25745 1.603543,-6.854852 1.398511,-2.766595 3.020461,-4.785375 4.780885,-5.950591 2.006388,-1.328017 3.402128,-1.724734 5.360398,-1.523611 1.76156,0.180923 5.20592,1.802869 6.81013,3.206895 l 1.04827,0.917465 -1.6585,0.01104 c -5.24828,0.03492 -8.69869,2.239069 -10.001842,6.389244 -0.992007,3.159286 -0.574101,6.931165 1.138472,10.275523 1.3385,2.613819 1.31198,2.603037 6.83412,2.780198 3.64068,0.1168 5.45525,0.306165 7.72917,0.806606 15.29262,3.365573 27.85507,13.43843 34.9329,28.010002 1.68484,3.468684 3.46966,8.792994 4.19288,12.507774 0.70003,3.59574 1.37829,10.36262 1.29584,12.92829 l -0.0634,1.97358 1.75286,0.84578 c 2.86015,1.38007 5.04828,4.22952 6.01634,7.83465 0.50956,1.89764 0.49663,6.33561 -0.0243,8.31777 -0.9132,3.47515 -3.19712,6.877 -6.03834,8.99398 -1.95687,1.45805 -4.81978,2.85169 -5.95658,2.8996 -0.79213,0.0334 -0.83191,-0.0134 -0.83191,-0.97942 0,-0.98991 0.0354,-1.02684 1.46172,-1.52472 4.28856,-1.49697 8.02854,-5.6303 9.22939,-10.20007 1.0371,-3.94667 0.0503,-8.60966 -2.42963,-11.48146 -1.03048,-1.19329 -2.76267,-2.23326 -3.22998,-1.93922 -0.15637,0.0984 -0.42923,1.07365 -0.60636,2.16724 -0.72417,4.47106 -2.1488,9.25311 -4.06208,13.63518 -1.18739,2.71953 -1.76079,3.67337 -2.08782,3.47304 -0.12662,-0.0776 -0.59101,-0.76734 -1.03202,-1.53284 -1.0011,-1.73776 -2.59596,-3.37808 -4.50784,-4.63632 -1.36763,-0.90006 -1.4618,-1.02814 -1.30808,-1.77895 0.86076,-4.20426 0.81868,-12.9171 -0.0847,-17.53134 -1.80472,-9.21823 -6.74782,-16.43778 -13.57846,-19.83174 -2.61319,-1.29843 -4.86431,-1.82008 -7.85426,-1.82008 -5.1589,0 -9.16348,1.76675 -13.55174,5.9788 l -1.64945,1.58319 -1.72762,-1.71241 c -3.965386,-3.93048 -8.3761,-5.85288 -13.428766,-5.85288 -8.925844,0 -16.714162,6.64152 -20.30087,17.31166 -1.473449,4.38339 -1.85471,7.77082 -1.669453,14.83265 0.08613,3.28238 0.232255,6.40628 0.324752,6.94199 0.157529,0.91222 0.102849,1.01501 -0.861692,1.61986 -1.579078,0.99021 -3.181589,2.70771 -4.535682,4.86113 -0.679022,1.07986 -1.352778,1.87883 -1.505494,1.78527 -0.513073,-0.31431 -2.673946,-5.23961 -3.847996,-8.77079 -0.641346,-1.92897 -1.452837,-5.04764 -1.803327,-6.93038 -0.350479,-1.88275 -0.71687,-3.55089 -0.81421,-3.70699 -0.238805,-0.38299 -1.331135,0.0421 -2.401831,0.93476 -1.973522,1.64532 -3.184359,4.05698 -3.641711,7.25333 -0.923863,6.45681 3.239797,13.07978 9.687912,15.41018 1.554281,0.56173 1.573357,0.58117 1.493799,1.52269 -0.102344,1.21135 -0.621583,1.30138 -2.663644,0.46189 z m 27.858761,-14.00993 c -0.998042,-0.6719 -2.287073,-2.67751 -2.008256,-3.12467 0.09219,-0.14779 0.391936,-0.26871 0.666184,-0.26871 0.684006,0 2.144475,-1.26387 2.144475,-1.8558 0,-0.63869 -1.483022,-1.85579 -2.261244,-1.85579 -0.950207,0 -1.202215,-0.50119 -0.943141,-1.8757 0.752474,-3.9924 2.96741,-6.86942 5.290542,-6.87203 2.837175,-0.003 4.868005,3.35947 4.868005,8.06045 0,3.41056 -1.067127,6.07235 -3.051557,7.6117 -1.185019,0.91923 -3.477127,1.0072 -4.705008,0.18055 z m 34.904525,0.27464 c -1.16284,-0.63591 -2.80841,-2.53716 -2.80841,-3.24479 0,-0.0733 0.52968,-0.36556 1.17708,-0.6494 2.42398,-1.06281 1.82204,-3.06826 -1.04335,-3.47609 l -1.06986,-0.15228 0.0714,-1.58548 c 0.18587,-4.12645 2.13057,-7.01424 4.72645,-7.01854 1.3246,-0.002 2.48801,0.76568 3.58308,2.36494 1.45952,2.13149 1.74688,3.25641 1.76574,6.91226 0.0167,3.22623 -0.005,3.35194 -0.80546,4.75126 -0.51109,0.89313 -1.16778,1.62089 -1.73436,1.92207 -1.01218,0.53806 -3.032,0.63013 -3.86232,0.17605 z"
       style="fill:#d8803e;fill-opacity:1;stroke-width:0.26628762"
       sodipodi:nodetypes="cccccsccccscccccccccccccccscsssssscsscccccssscccsscccscccccsccsscssccsssccscccccscscccccsssccscccsccccccccccc" />
    <path
       inkscape:connector-curvature="0"
       id="path3732"
       d="m 72.667652,165.59103 c -2.72043,-0.53842 -5.34318,-2.6092 -6.63409,-5.23792 -0.65584,-1.3355 -0.73589,-1.78633 -0.73589,-4.14434 0,-2.3145 0.0885,-2.83458 0.70649,-4.15304 0.90205,-1.92441 2.74451,-3.76579 4.66548,-4.66275 1.30309,-0.60845 1.84759,-0.70312 4.02074,-0.69905 2.20568,0.004 2.69949,0.0951 4.03172,0.74259 1.92963,0.93786 3.66286,2.66829 4.61529,4.60786 0.66998,1.36436 0.74472,1.78721 0.73604,4.16439 -0.0113,3.10442 -0.47845,4.40906 -2.27739,6.36067 -2.40591,2.6101 -5.69933,3.70026 -9.12839,3.02159 z m 61.486748,-0.0122 c -0.54629,-0.12875 -1.59216,-0.53757 -2.32414,-0.9085 -6.86901,-3.48079 -6.77099,-13.67678 0.16431,-17.09102 6.6581,-3.27777 14.24442,1.76436 13.80177,9.17312 -0.35329,5.91303 -5.96175,10.16512 -11.64194,8.8264 z"
       style="fill:#de6361;stroke-width:0.26458332"
       sodipodi:nodetypes="scscccccccsccssc" />
    <path
       inkscape:connector-curvature="0"
       id="path3728"
       d="m 101.41603,175.74602 c -6.350532,-1.38511 -11.055502,-5.75475 -11.446922,-10.6311 -0.13302,-1.65708 -0.12554,-1.68059 0.53447,-1.68059 0.74543,0 0.99057,0.42051 0.99057,1.69918 0,1.34771 1.42988,3.89582 3.04139,5.41992 2.24252,2.12089 7.152732,4.16686 9.464612,3.94369 l 0.85546,-0.0826 v -12.14199 c 0,-10.52108 -0.053,-12.17066 -0.39687,-12.35671 -0.21828,-0.11809 -0.85008,-0.41571 -1.404,-0.66138 -2.97199,-1.31813 -3.181792,-4.93493 -0.38047,-6.55891 3.67811,-2.13226 8.79396,0.0577 8.32377,3.56325 -0.1944,1.4494 -0.90513,2.26235 -2.77165,3.17027 l -1.6563,0.80567 0.0688,12.0899 0.0688,12.0899 0.75577,0.0864 c 1.24997,0.14296 4.54997,-0.72432 6.5354,-1.71759 3.16656,-1.58417 5.41975,-4.21439 6.19564,-7.23239 0.25742,-1.00127 0.40854,-1.19062 0.95027,-1.19062 0.57241,0 0.63826,0.1055 0.59115,0.94718 -0.24891,4.44656 -5.29516,9.06242 -11.3763,10.40602 -2.28493,0.50485 -6.70417,0.52088 -8.9436,0.0324 z M 86.733788,141.6839 c -1.55416,-0.79359 -3.1146,-3.12041 -2.09264,-3.12041 0.15991,0 0.67919,-0.18433 1.15396,-0.40962 1.10214,-0.523 1.56506,-1.46409 1.1588,-2.35575 -0.29835,-0.65481 -1.65735,-1.46796 -2.45336,-1.46796 -0.67885,0 -0.75374,-0.62265 -0.29177,-2.4259 1.46937,-5.73551 5.45692,-7.68275 8.01999,-3.91639 1.40439,2.06372 1.89801,6.92074 0.97857,9.62887 -1.26897,3.73768 -3.89172,5.38549 -6.47355,4.06716 z m 34.242692,0.0829 c -1.06328,-0.48293 -2.75941,-2.23244 -2.75941,-2.84625 0,-0.17384 0.41635,-0.45348 0.92522,-0.62142 2.48845,-0.82126 2.16142,-3.14142 -0.53933,-3.82638 -1.54757,-0.39249 -1.63391,-0.61378 -1.19582,-3.06518 0.44177,-2.47196 1.5408,-4.28007 3.04387,-5.00769 1.03807,-0.50252 1.32228,-0.53898 2.12815,-0.27302 4.36107,1.43928 6.142,11.42559 2.65375,14.88056 -0.638,0.63191 -2.11324,1.26604 -2.9148,1.2529 -0.14552,-0.002 -0.74925,-0.22447 -1.34163,-0.49352 z"
       style="fill:#8f5329;stroke-width:0.26458332" />
    <path
       inkscape:connector-curvature="0"
       id="path3726"
       d="m 105.38922,149.94777 c -0.0875,-0.14156 -0.65575,-0.39113 -1.26279,-0.55459 -0.65128,-0.17537 -1.51436,-0.70785 -2.1055,-1.29898 -0.86135,-0.86135 -1.00177,-1.16804 -1.00177,-2.18785 0,-1.43586 0.64377,-2.35693 2.20782,-3.1588 3.39533,-1.74074 8.04225,0.55438 7.45546,3.68227 -0.18389,0.98024 -1.68615,2.71701 -2.35014,2.71701 -0.17715,0 -0.78916,0.23813 -1.36002,0.52917 -1.17867,0.60092 -1.36036,0.63211 -1.58306,0.27177 z m -19.482442,-9.23648 c -1.26038,-1.26038 -1.2909,-1.76594 -0.13574,-2.24859 0.9639,-0.40275 1.75437,-1.33091 1.75437,-2.05999 0,-0.7199 -1.09393,-1.77312 -2.24896,-2.16528 -0.94367,-0.32038 -1.04959,-0.44232 -0.97757,-1.12548 0.20561,-1.9505 1.18673,-4.15497 2.41753,-5.4319 1.11147,-1.15312 1.36106,-1.28739 2.39321,-1.28739 1.01363,0 1.28446,0.1379 2.25014,1.14574 1.3638,1.42334 1.98648,3.439 1.98648,6.43037 0,2.51818 -0.49995,4.37433 -1.57968,5.86485 -0.9873,1.36293 -2.01086,1.90487 -3.59768,1.90487 -1.0817,0 -1.36233,-0.12743 -2.2621,-1.0272 z m 33.793852,-0.33557 -1.35127,-1.36277 0.71484,-0.2989 c 1.13662,-0.47527 2.06329,-1.49353 2.06329,-2.26723 0,-1.09604 -1.65122,-2.38125 -3.0594,-2.38125 -0.70574,0 -0.71119,-0.014 -0.53911,-1.38905 0.29865,-2.38651 0.98643,-4.1804 2.01892,-5.26576 0.82284,-0.86499 1.1352,-1.0181 2.0771,-1.0181 1.35167,0 2.20373,0.52668 3.20393,1.98041 1.40177,2.03741 1.92091,4.13505 1.80172,7.28 -0.0843,2.22513 -0.22332,3.00403 -0.69823,3.91299 -0.76918,1.47217 -1.92188,2.17017 -3.58596,2.17144 -1.20776,8e-4 -1.38518,-0.0904 -2.64583,-1.36178 z"
       style="fill:#6b381b;stroke-width:0.26458332" />
  </g>
</svg>
